<?xml version="1.0" encoding="utf-8"?>
<!-- Generator: Adobe Illustrator 14.0.0, SVG Export Plug-In . SVG Version: 6.00 Build 43363)  -->
<!DOCTYPE svg PUBLIC "-//W3C//DTD SVG 1.1//EN" "http://www.w3.org/Graphics/SVG/1.1/DTD/svg11.dtd">
<svg version="1.1" id="Layer_1" xmlns="http://www.w3.org/2000/svg" xmlns:xlink="http://www.w3.org/1999/xlink" x="0px" y="0px"
	 width="20px" height="20px" viewBox="0 0 20 20" enable-background="new 0 0 20 20" xml:space="preserve">
<rect x="3.594" y="3.438" fill="#FFFFFF" width="12.562" height="12.617"/>
<path d="M10,0.226c-5.398,0-9.774,4.376-9.774,9.774c0,5.398,4.376,9.773,9.774,9.773s9.773-4.375,9.773-9.773
	C19.773,4.603,15.398,0.226,10,0.226z M15.299,12.996c0.256,0.254,0.256,0.666,0,0.92l-1.383,1.383c-0.254,0.256-0.664,0.256-0.92,0
	L10,12.305l-2.995,2.994c-0.254,0.256-0.667,0.256-0.922,0l-1.382-1.383c-0.254-0.254-0.254-0.666,0-0.92L7.696,10L4.701,7.005
	c-0.254-0.254-0.254-0.667,0-0.922l1.383-1.382c0.254-0.254,0.667-0.254,0.921,0L10,7.696l2.996-2.995
	c0.254-0.254,0.666-0.254,0.92,0l1.383,1.382c0.256,0.254,0.256,0.667,0,0.922L12.305,10L15.299,12.996z"/>
</svg>
